<svg width="306" height="64" viewBox="0 0 306 64" fill="none" xmlns="http://www.w3.org/2000/svg">
<path d="M10.1105 6.17896L10.5579 11.5474H9.93158C9.75263 10.4737 9.21579 9.84738 8.85789 9.22106C8.5 8.59474 7.87368 8.14738 7.24737 7.70001C6.62105 7.34211 5.90526 7.16317 5.18947 7.16317C4.38421 7.16317 3.75789 7.43159 3.22105 7.96843C2.68421 8.50527 2.77368 9.13159 2.77368 9.7579C2.77368 10.2947 2.95263 10.7421 3.31053 11.1C3.75789 11.7263 4.74211 12.3526 6.53158 13.4263C7.96316 14.2316 8.76842 14.9474 9.30526 15.3947C9.84211 15.8421 10.2895 16.379 10.5579 16.9158C10.8263 17.5421 11.0053 18.1684 11.0053 18.7947C11.0053 20.0474 10.5579 21.1211 9.66316 22.0158C8.76842 22.9105 7.60526 23.3579 6.08421 23.3579C5.63684 23.3579 5.18947 23.3579 4.83158 23.2684C4.56316 23.2684 4.11579 23.0895 3.31053 22.8211C2.59474 22.5526 2.05789 22.4632 1.87895 22.4632C1.7 22.4632 1.52105 22.5526 1.43158 22.6421C1.34211 22.7316 1.25263 23 1.16316 23.3579H0.626316L0 17.9H0.447368C0.894737 19.0632 1.52105 20.0474 1.87895 20.6737C2.23684 21.3 2.95263 21.479 3.57895 21.8368C4.29474 22.1947 5.01053 22.4632 5.90526 22.4632C6.88947 22.4632 7.42632 22.1947 7.96316 21.6579C8.5 21.1211 8.76842 20.4947 8.76842 19.779C8.76842 19.3316 8.67895 18.9737 8.41053 18.5263C8.14211 18.079 7.42632 17.2737 6.97895 16.9158C6.71053 16.6474 6.53158 16.6474 5.18947 15.8421C3.84737 15.0368 2.86316 14.4105 2.32632 13.9632C1.7 13.5158 1.34211 12.979 0.984211 12.4421C0.715789 11.8158 0.626316 11.1895 0.626316 10.5632C0.626316 9.40001 1.07368 8.32632 1.87895 7.52106C2.77368 6.62632 3.84737 6.26843 5.18947 6.26843C5.99474 6.26843 6.88947 6.44738 7.87368 6.89474C8.32105 7.07369 8.58947 7.16317 8.76842 7.16317C8.94737 7.16317 9.12632 7.07369 9.21579 6.98422C9.30526 6.89474 9.48421 6.62632 9.48421 6.26843L10.1105 6.17896Z" fill="#205AA0"/>
<path d="M16.2837 8.59473V11.8158H18.7889V12.621H16.2837V20.2263C16.2837 20.9421 16.3731 21.3 16.6416 21.5684C16.91 21.8368 17.3573 22.1947 17.7152 22.1947C17.9837 22.1947 18.2521 22.1053 18.431 21.9263C18.6994 21.7474 18.8784 21.6579 18.9679 21.3H19.3258C19.0573 22.1053 18.6994 22.6421 18.1626 23C17.7152 23.3579 16.8205 23.3579 16.3731 23.3579C16.0152 23.3579 15.6573 23.2684 15.2994 23.0895C14.9416 22.9105 14.6731 22.6421 14.5837 22.1947C14.4047 21.8368 14.1363 21.2105 14.1363 20.4947V12.7105H12.6152V12.2631C14.2258 11.1895 15.1205 9.93683 15.8363 8.59473C15.9258 8.59473 16.2837 8.59473 16.2837 8.59473Z" fill="#205AA0"/>
<path d="M33.8211 8.59473V11.8158H36.3264V12.621H33.8211V20.2263C33.8211 20.9421 33.9106 21.3 34.179 21.5684C34.4474 21.8368 34.8948 22.1947 35.2527 22.1947C35.5211 22.1947 35.7896 22.1053 35.9685 21.9263C36.2369 21.7474 36.4159 21.6579 36.5053 21.3H36.9527C36.6843 22.1053 36.3264 22.6421 35.7896 23C35.2527 23.3579 34.4475 23.3579 34.0001 23.3579C33.6422 23.3579 33.2843 23.2684 32.9264 23.0895C32.5685 22.9105 32.3001 22.6421 32.2106 22.1947C32.0317 21.8368 31.7632 21.2105 31.7632 20.4947V12.7105H30.2422V12.2631C31.8527 11.2789 32.7474 10.0263 33.4632 8.59473H33.8211Z" fill="#205AA0"/>
<path d="M228.604 8.59473V11.8158H231.11V12.621H228.604V20.2263C228.604 20.9421 228.694 21.3 228.962 21.5684C229.141 21.8368 229.678 22.1947 230.036 22.1947C230.304 22.1947 230.573 22.1053 230.752 21.9263C231.02 21.7474 231.199 21.6579 231.289 21.3H231.736C231.467 22.1053 231.11 22.6421 230.573 23C230.036 23.3579 229.231 23.3579 228.783 23.3579C228.425 23.3579 228.067 23.2684 227.71 23.0895C227.352 22.9105 227.083 22.6421 226.994 22.1947C226.815 21.8368 226.546 21.2105 226.546 20.4947V12.7105H225.025V12.2631C226.636 11.1895 227.531 9.93683 228.246 8.59473C228.246 8.59473 228.604 8.59473 228.604 8.59473Z" fill="#205AA0"/>
<path d="M26.2167 21.5684C25.0535 22.4632 24.3377 23 24.0693 23.0895C23.6219 23.2684 23.1745 23.3579 22.6377 23.3579C21.8324 23.3579 21.2061 23.0895 20.7588 22.5526C20.2219 22.0158 20.043 21.3 20.043 20.4947C20.043 19.9579 20.1324 19.5105 20.4009 19.0632C20.7588 18.5263 21.2956 17.9895 22.1009 17.5421C22.9061 17.0947 24.3377 16.4684 26.2167 15.7526V15.3053C26.2167 14.2316 26.0377 13.4263 25.6798 12.9789C25.3219 12.5316 24.7851 12.3526 24.1588 12.3526C23.6219 12.3526 23.264 12.5316 22.9061 12.8C22.6377 13.0684 22.4588 13.4263 22.4588 13.7842V14.5C22.4588 14.8579 22.3693 15.1263 22.1903 15.3947C22.0114 15.5737 21.743 15.6632 21.4745 15.6632C21.2061 15.6632 20.9377 15.5737 20.7588 15.3053C20.5798 15.1263 20.4903 14.7684 20.4903 14.4105C20.4903 13.6947 20.8482 13.0684 21.564 12.4421C22.2798 11.8158 23.264 11.5474 24.6061 11.5474C25.5903 11.5474 26.3956 11.7263 27.0219 12.0842C27.4693 12.3526 27.8272 12.7105 28.0956 13.2474C28.2745 13.6053 28.2745 14.321 28.2745 15.3947V19.1526C28.2745 20.2263 28.2745 20.8526 28.364 21.121C28.364 21.3895 28.4535 21.9263 28.9903 21.9263C29.5272 21.9263 29.7061 21.8368 30.1535 21.3895V22.1947C29.2588 23.4474 28.4535 23.3579 27.6482 23.3579C27.2903 23.3579 26.9324 23.1789 26.664 22.9105C26.3956 22.7316 26.3061 22.2842 26.2167 21.5684ZM26.2167 20.7632V16.4684C24.964 16.9158 24.1588 17.2737 23.8009 17.5421C23.1745 17.9 22.7272 18.2579 22.4588 18.7053C22.1903 19.0632 22.0114 19.5105 22.0114 19.9579C22.0114 20.5842 22.1903 21.0316 22.5482 21.3895C22.9061 21.7474 23.264 21.9263 23.8009 21.9263C24.4272 22.0158 25.2324 21.6579 26.2167 20.7632Z" fill="#205AA0"/>
<path d="M38.8324 16.2895C38.8324 17.9 39.2798 19.1526 40.0851 20.0474C40.8903 20.9421 41.964 21.5684 43.0377 21.6579C44.2009 21.6579 45.7219 20.8526 46.6167 18.9737L46.9745 19.2421C46.7061 20.4947 46.0798 21.2105 45.2745 22.1947C44.4693 23.0895 43.2167 23.5368 41.964 23.5368C40.6219 23.5368 39.4588 23 38.4745 22.0158C37.4903 20.9421 37.043 19.6 37.043 17.8105C37.043 15.9316 37.5798 14.4105 38.564 13.4263C39.5482 12.4421 40.8009 11.8158 42.3219 11.8158C43.5745 11.8158 44.6482 12.2632 45.4535 13.0684C46.2588 13.8737 46.7061 15.0368 46.7061 16.4684C46.7061 16.2895 38.8324 16.2895 38.8324 16.2895ZM38.8324 15.4842H44.1114C44.1114 14.7684 44.0219 14.2316 43.843 13.9632C43.664 13.5158 43.3061 13.1579 42.9482 12.8895C42.5903 12.6211 42.143 12.5316 41.6956 12.5316C40.9798 12.5316 40.3535 12.8 39.8167 13.3368C39.1903 13.8737 38.9219 14.5895 38.8324 15.4842Z" fill="#205AA0"/>
<path d="M132.063 16.2895C132.063 17.9 132.421 19.1526 133.316 20.0474C134.21 20.9421 135.194 21.5684 136.268 21.6579C137.431 21.6579 138.952 20.8526 139.847 18.9737L140.205 19.2421C139.937 20.4947 139.31 21.2105 138.505 22.1947C137.7 23.0895 136.447 23.5368 135.194 23.5368C133.852 23.5368 132.689 23 131.705 22.0158C130.721 20.9421 130.273 19.6 130.273 17.8105C130.273 15.9316 130.81 14.4105 131.794 13.4263C132.779 12.3526 134.031 11.8158 135.552 11.8158C136.805 11.8158 137.879 12.2632 138.684 13.0684C139.489 13.8737 139.937 15.0368 139.937 16.4684C139.937 16.2895 132.063 16.2895 132.063 16.2895ZM132.063 15.4842H137.342C137.342 14.7684 137.252 14.2316 137.073 13.9632C136.894 13.5158 136.537 13.1579 136.179 12.8895C135.821 12.6211 135.373 12.5316 134.926 12.5316C134.21 12.5316 133.584 12.8 133.047 13.3368C132.51 13.8737 132.152 14.5895 132.063 15.4842Z" fill="#205AA0"/>
<path d="M143.069 16.2895C143.069 17.9 143.427 19.1526 144.322 20.0474C145.127 20.9421 146.201 21.5684 147.364 21.6579C148.527 21.6579 150.048 20.8526 150.943 18.9737L151.301 19.2421C151.032 20.4947 150.406 21.2105 149.601 22.1947C148.795 23.179 147.543 23.5368 146.29 23.5368C144.948 23.5368 143.785 23 142.801 22.0158C141.817 20.9421 141.369 19.6 141.369 17.8105C141.369 15.9316 141.906 14.4105 142.89 13.4263C143.874 12.3526 145.127 11.8158 146.648 11.8158C147.901 11.8158 148.974 12.2632 149.78 13.0684C150.585 13.8737 151.032 15.0368 151.032 16.4684C150.943 16.2895 143.069 16.2895 143.069 16.2895ZM143.069 15.4842H148.348C148.348 14.7684 148.259 14.2316 148.08 13.9632C147.901 13.5158 147.543 13.1579 147.185 12.8895C146.827 12.6211 146.38 12.5316 145.932 12.5316C145.217 12.5316 144.59 12.8 144.053 13.3368C143.427 13.8737 143.159 14.5895 143.069 15.4842Z" fill="#205AA0"/>
<path d="M197.38 16.2895C197.38 17.9 197.738 19.1526 198.632 20.0474C199.438 20.9421 200.511 21.5684 201.674 21.6579C202.838 21.6579 204.359 20.8526 205.253 18.9737L205.611 19.2421C205.343 20.4947 204.717 21.2105 203.911 22.1947C203.106 23.179 201.853 23.5368 200.601 23.5368C199.259 23.5368 198.095 23 197.111 22.0158C196.127 20.9421 195.68 19.6 195.68 17.8105C195.68 15.0368 196.217 14.4105 197.201 13.4263C198.185 12.3526 199.438 11.8158 200.959 11.8158C202.211 11.8158 203.285 12.2632 204.09 13.0684C204.895 13.8737 205.343 15.0368 205.343 16.4684C205.253 16.2895 197.38 16.2895 197.38 16.2895ZM197.38 15.4842H202.659C202.659 14.7684 202.569 14.2316 202.39 13.9632C202.211 13.5158 201.853 13.1579 201.495 12.8895C201.138 12.6211 200.69 12.5316 200.243 12.5316C199.527 12.5316 198.901 12.8 198.364 13.3368C197.827 13.8737 197.469 14.5895 197.38 15.4842Z" fill="#205AA0"/>
<path d="M58.6952 7.70003V14.2316H62.811C63.7058 14.2316 64.3321 14.0527 64.6005 13.7842C64.9584 13.4264 65.2268 12.7106 65.2268 11.8158H65.6742V17.6316H65.2268C65.1373 16.8264 65.0479 16.2895 64.8689 16.1106C64.69 15.8421 64.511 15.5737 64.1531 15.3948C63.7952 15.2158 63.3479 15.1264 62.7215 15.1264H58.6952V20.5842C58.6952 21.3 58.6952 21.7474 58.6952 21.8369C58.7847 22.0158 58.9637 22.1948 59.0531 22.2842C59.2321 22.3737 59.5005 22.4632 59.9479 22.4632H63.5268C64.4215 22.4632 64.7794 22.3737 65.2268 22.2842C65.5847 22.1948 66.0321 21.9264 66.39 21.479C66.8373 20.9421 67.3742 20.2264 67.8215 19.1527H68.5373L67.3742 23.3579H53.9531V22.9106H54.49C54.8479 22.9106 55.2058 22.8211 55.5637 22.6421C55.8321 22.5527 56.011 22.2842 56.1005 22.0158C56.19 21.7474 56.19 21.2106 56.19 20.4053V9.66846C56.19 8.59477 56.1005 7.96846 55.9215 7.70003C55.6531 7.34214 55.2058 7.25267 54.5794 7.25267H54.0426V6.8053H67.3742V10.4737H66.8373C66.6584 9.57898 66.6584 9.22109 66.4794 8.86319C66.3005 8.5053 66.0321 8.32635 65.5847 8.1474C65.3163 8.05793 64.8689 7.78951 64.1531 7.78951C63.9742 7.70003 58.6952 7.70003 58.6952 7.70003Z" fill="#205AA0"/>
<path d="M72.8317 13.9632C73.637 13.1579 75.0686 12.2632 75.4265 12.0842C75.8738 11.9053 76.2317 11.8158 76.6791 11.8158C77.3949 11.8158 78.0212 11.9947 78.4686 12.4421C79.0054 12.8 79.2738 13.4263 79.4528 14.1421C80.3475 13.2474 81.0633 12.6211 81.6002 12.3526C82.137 12.0842 82.7633 11.9053 83.3896 11.9053C84.016 11.9053 84.5528 12.0842 85.0002 12.3526C85.4475 12.6211 85.8054 13.1579 86.0738 13.7842C86.2528 14.2316 86.3423 15.2158 86.3423 16.2V20.9421C86.3423 21.6579 86.4317 22.1053 86.5212 22.3737C86.6107 22.5526 86.7896 22.7316 86.9686 22.8211C87.1475 22.9105 87.5054 23 88.0423 23V23.4474H82.4949V23H82.7633C83.2107 23 83.6581 22.9105 83.9265 22.7316C84.1054 22.6421 84.2844 22.3737 84.2844 22.1053C84.2844 21.9263 84.3738 21.5684 84.3738 20.9421V16.2C84.3738 15.3053 84.2844 14.4105 84.016 14.0526C83.6581 13.5158 83.2107 13.2474 82.4949 13.2474C82.0475 13.2474 81.6002 13.3368 81.1528 13.6053C80.7054 13.7842 80.1686 14.2316 79.5423 14.7684V15.3947V20.8526C79.5423 21.5684 79.5423 22.1053 79.6317 22.2842C79.7212 22.4632 79.9002 22.6421 80.0791 22.7316C80.3475 22.8211 80.7054 22.9105 81.2423 22.9105V23.3579H75.6054V22.9105C76.2317 22.9105 76.6791 22.8211 76.8581 22.7316C77.1265 22.5526 77.216 22.3737 77.3054 22.1053C77.3054 21.9263 77.3949 21.5684 77.3949 20.9421V16.2C77.3949 15.3053 77.3054 14.4105 77.037 14.0526C76.8581 13.5158 76.3212 13.2474 75.6949 13.2474C75.2475 13.2474 74.8002 13.3368 74.3528 13.6053C73.637 13.9632 73.1896 14.3211 72.8317 14.7684V20.9421C72.8317 21.6579 72.9212 22.1053 73.0107 22.3737C73.1002 22.5526 73.2791 22.7316 73.4581 22.8211C73.637 22.9105 74.0844 23 74.7107 23V23.4474H69.1633V23C69.7002 23 70.0581 22.9105 70.237 22.8211C70.416 22.7316 70.5949 22.5526 70.6844 22.2842C70.7738 22.0158 70.8633 21.5684 70.8633 20.9421V16.7368C70.8633 15.5737 70.8633 14.7684 70.7738 14.4105C70.6844 14.1421 70.5949 13.9632 70.5054 13.8737C70.416 13.7842 70.237 13.6947 69.9686 13.6947C69.7002 13.6947 69.4317 13.7842 69.1633 13.8737L68.9844 13.4263L72.3844 12.0842L72.9212 11.8158L72.8317 13.9632Z" fill="#205AA0"/>
<path d="M87.9531 12.9789L91.3531 11.5474H91.8005V13.2474C92.9637 12.0842 94.7531 11.4579 95.3794 11.4579C96.5426 11.4579 97.4373 11.9053 98.1531 12.8C99.0479 13.8737 99.4952 15.3053 99.4952 17.0053C99.4952 18.9737 98.9584 20.5842 97.8847 21.8368C96.99 22.9105 95.8268 23.3579 94.4847 23.3579C93.8584 23.3579 93.3216 23.2684 92.9637 23.0895C92.6058 22.9105 92.2479 22.5526 91.89 22.1947V25.8631C91.89 26.6684 91.9794 27.1158 92.0689 27.2947C92.1584 27.4737 92.3373 27.6526 92.5163 27.8316C92.7847 27.921 93.1426 28.0105 93.7689 28.0105V28.4579H87.9531V28.0105H88.2215C88.6689 28.0105 88.9373 27.921 89.2058 27.7421C89.3847 27.6526 89.4742 27.4737 89.5637 27.2947C89.6531 27.1158 89.6531 26.5789 89.6531 25.7737V15.2158C89.6531 14.5 89.6531 14.0526 89.5637 13.7842C89.4742 13.6053 89.3847 13.4263 89.2952 13.3368C89.1163 13.2474 89.0268 13.2474 88.8479 13.2474C88.6689 13.2474 88.4005 13.3368 88.1321 13.4263L87.9531 12.9789ZM91.8005 14.5V18.9737C91.8005 19.8684 91.8005 20.4947 91.89 20.7631C91.9794 21.2105 92.2479 21.6579 92.6952 22.0158C93.1426 22.3737 93.6794 22.5526 94.3952 22.5526C95.2005 22.5526 95.8268 22.1947 96.3637 21.5684C96.99 20.7631 97.3479 19.7789 97.3479 18.2579C97.3479 16.5579 96.99 14.7684 96.1847 13.8737C95.6479 13.2474 95.0216 12.8895 94.3058 12.8895C93.9479 12.8895 93.5005 12.9789 93.1426 13.1579C92.9637 13.3368 92.5163 13.7842 91.8005 14.5Z" fill="#205AA0"/>
<path d="M104.595 6.26843V20.9421C104.595 21.6579 104.684 22.1053 104.774 22.2842C104.863 22.5526 105.042 22.6421 105.221 22.8211C105.4 22.9105 106.026 23 106.563 23V23.4474H100.568V23C101.105 23 101.821 22.9105 102 22.8211C102.179 22.7316 102.358 22.5526 102.447 22.2842C102.537 22.0158 102.626 21.5684 102.626 20.8526V10.9211C102.626 9.66843 102.626 8.86317 102.537 8.59475C102.447 8.32633 102.268 8.05791 102.179 7.96843C102.089 7.87896 101.91 7.78949 101.732 7.78949C101.553 7.78949 101.105 7.78949 100.747 7.96843L100.568 7.52106L104.147 6.26843C104.058 6.26843 104.595 6.26843 104.595 6.26843Z" fill="#205AA0"/>
<path d="M112.648 11.6368C114.438 11.6368 115.78 12.2632 116.853 13.6053C117.748 14.6789 118.196 15.9316 118.196 17.3632C118.196 18.3474 117.927 19.3316 117.48 20.4053C116.943 21.3895 116.317 22.1947 115.422 22.7316C114.527 23.2684 113.543 23.5368 112.469 23.5368C110.68 23.5368 109.338 22.9105 108.264 21.5684C107.369 20.4053 106.922 19.1526 106.922 17.8105C106.922 16.8263 107.19 15.7526 107.727 14.7684C108.264 13.7842 108.98 12.9789 109.785 12.5316C110.859 11.8158 111.753 11.6368 112.648 11.6368ZM112.29 12.4421C111.843 12.4421 111.396 12.5316 110.948 12.8C110.501 13.0684 110.143 13.5158 109.875 14.1421C109.606 14.7684 109.427 15.5737 109.427 16.6474C109.427 18.2579 109.785 19.8684 110.411 21.0316C111.127 22.1947 111.932 22.8211 113.096 22.8211C113.901 22.8211 114.617 22.4632 115.153 21.8368C115.69 21.2105 115.959 19.8684 115.959 18.2579C115.959 16.2895 115.511 14.6789 114.617 13.6053C113.99 12.8 113.185 12.4421 112.29 12.4421Z" fill="#205AA0"/>
<path d="M280.59 11.6368C282.379 11.6368 283.721 12.2632 284.795 13.6053C285.69 14.6789 286.137 15.9316 286.137 17.3632C286.137 18.3474 285.869 19.3316 285.421 20.4053C284.884 21.3895 284.258 22.1947 283.363 22.7316C282.469 23.2684 281.484 23.5368 280.411 23.5368C278.621 23.5368 277.279 22.9105 276.205 21.5684C275.311 20.4053 274.863 19.1526 274.863 17.8105C274.863 16.8263 275.132 15.7526 275.669 14.7684C276.205 13.7842 276.921 12.9789 277.726 12.5316C278.711 11.8158 279.605 11.6368 280.59 11.6368ZM280.232 12.4421C279.784 12.4421 279.337 12.5316 278.89 12.8C278.442 13.0684 278.084 13.5158 277.816 14.1421C277.547 14.7684 277.369 15.5737 277.369 16.6474C277.369 18.2579 277.726 19.8684 278.353 21.0316C279.069 22.1947 279.874 22.8211 281.037 22.8211C281.842 22.8211 282.558 22.4632 283.095 21.8368C283.632 21.2105 283.9 19.8684 283.9 18.2579C283.9 16.2895 283.453 14.6789 282.558 13.6053C281.932 12.8 281.126 12.4421 280.232 12.4421Z" fill="#205AA0"/>
<path d="M118.643 11.8158H124.011V12.2632H123.474C123.206 12.2632 122.579 12.1737 122.49 12.8895C122.49 13.2474 122.579 13.6947 122.848 14.2316L125.443 19.9579L127.769 13.9632C127.858 13.6053 127.948 13.3368 127.948 12.979C127.948 12.8 127.948 12.7105 127.858 12.6211C127.769 12.5316 127.679 12.4421 127.59 12.4421C127.5 12.3526 127.232 12.3526 126.874 12.3526V11.8158H130.364V12.2632C130.095 12.2632 129.827 12.3526 129.648 12.4421C129.469 12.5316 129.29 12.7105 129.111 12.979C129.022 13.0684 128.932 13.4263 128.753 13.9632L124.369 25.2368C123.922 26.3105 123.385 27.1158 122.669 27.7421C121.953 28.279 121.327 28.5474 120.7 28.5474C120.253 28.5474 119.895 28.3684 119.537 28.1C119.269 27.8316 119.09 27.4737 119.09 27.1158C119.09 26.7579 119.179 26.4895 119.448 26.3105C119.627 26.1316 119.985 25.9526 120.343 25.9526C120.611 25.9526 120.969 26.0421 121.416 26.2211C121.774 26.3105 121.953 26.4 122.043 26.4C122.311 26.4 122.579 26.3105 122.848 26.0421C123.116 25.7737 123.385 25.3263 123.653 24.5211L124.458 22.5526L120.611 14.0526C120.522 13.7842 120.343 13.5158 120.074 13.0684C119.895 12.8 119.716 12.6211 119.627 12.5316C119.448 12.4421 119.179 12.2632 118.732 12.1737L118.643 11.8158Z" fill="#205AA0"/>
<path d="M159.441 11.5474V15.3947H159.083C158.815 14.2316 158.368 13.3368 157.92 12.9789C157.473 12.5316 156.847 12.3526 156.131 12.3526C155.594 12.3526 155.147 12.5316 154.789 12.8C154.431 13.0684 154.252 13.4263 154.252 13.7842C154.252 14.2316 154.341 14.5895 154.61 14.9474C154.878 15.3053 155.326 15.6632 156.131 16.021L157.831 16.9158C159.441 17.721 160.247 18.7947 160.247 20.1368C160.247 21.121 159.889 22.0158 159.083 22.6421C158.368 23.2684 157.473 23.5368 156.578 23.5368C155.952 23.5368 155.147 23.4474 154.252 23.1789C153.983 23.0895 153.805 23.0895 153.626 23.0895C153.447 23.0895 153.268 23.1789 153.178 23.4474H152.82V19.421H153.178C153.357 20.5842 153.805 21.3895 154.431 22.0158C155.057 22.5526 155.773 22.9105 156.578 22.9105C157.115 22.9105 157.562 22.7316 157.92 22.3737C158.278 22.0158 158.457 21.6579 158.457 21.2105C158.457 20.6737 158.278 20.1368 157.92 19.7789C157.562 19.421 156.757 18.8842 155.594 18.3474C154.431 17.8105 153.715 17.2737 153.357 16.7368C152.999 16.2895 152.82 15.6632 152.82 14.9474C152.82 14.0526 153.089 13.2474 153.715 12.621C154.341 11.9947 155.147 11.7263 156.131 11.7263C156.578 11.7263 157.115 11.8158 157.652 11.9947C158.099 12.0842 158.368 12.1737 158.457 12.1737C158.547 12.1737 158.726 12.1737 158.726 12.0842C158.815 11.9947 158.905 11.9053 158.994 11.7263L159.441 11.5474Z" fill="#205AA0"/>
<path d="M161.857 12.3526V11.8158C162.662 11.3684 163.199 10.9211 163.468 10.4737C163.647 10.2053 163.736 9.84738 163.736 9.40001C163.736 9.13159 163.736 8.95264 163.647 8.86317C163.557 8.7737 163.468 8.68422 163.378 8.68422C163.289 8.68422 163.199 8.68422 163.02 8.7737C162.841 8.86317 162.662 8.86317 162.483 8.86317C162.215 8.86317 161.947 8.7737 161.678 8.50527C161.41 8.23685 161.32 7.96843 161.32 7.61054C161.32 7.25264 161.41 6.89475 161.678 6.7158C162.036 6.44738 162.394 6.26843 162.841 6.26843C163.378 6.26843 163.826 6.44738 164.273 6.89475C164.72 7.34212 164.899 7.87896 164.899 8.59475C164.899 9.48949 164.541 10.3842 163.915 11.1C163.378 11.6369 162.752 12.0842 161.857 12.3526Z" fill="#205AA0"/>
<path d="M185.927 6.35791L186.285 11.9053H185.927C185.39 10.2053 184.675 9.04212 183.69 8.32633C182.706 7.61054 181.543 7.25264 180.201 7.25264C179.038 7.25264 178.054 7.52106 177.159 8.05791C176.264 8.59475 175.548 9.48948 175.011 10.6526C174.475 11.8158 174.206 13.3369 174.206 15.1263C174.206 16.6474 174.475 17.9 174.922 18.9737C175.459 20.0474 176.175 20.8526 177.159 21.479C178.143 22.0158 179.306 22.3737 180.559 22.3737C181.632 22.3737 182.527 22.3737 183.332 21.9263C184.138 21.479 184.943 21.1211 186.106 19.9579L186.464 20.2263C185.39 21.479 184.585 22.0158 183.422 22.6421C182.259 23.3579 181.006 23.4474 179.485 23.4474C176.622 23.4474 174.475 22.4632 172.864 20.4053C171.701 18.8842 171.164 17.1842 171.164 15.1263C171.164 13.5158 171.522 11.9947 172.327 10.6526C173.132 9.31054 174.117 8.23685 175.459 7.43159C176.801 6.7158 178.232 6.26843 179.843 6.26843C181.096 6.26843 182.259 6.53685 183.511 7.16317C183.869 7.34212 184.138 7.43159 184.227 7.43159C184.496 7.43159 184.675 7.34212 184.854 7.16317C185.032 6.98422 185.211 6.62633 185.301 6.26843L185.927 6.35791Z" fill="#205AA0"/>
<path d="M191.116 11.9947V14.1421C192.1 12.4421 192.995 11.9053 193.979 11.9053C194.427 11.9053 194.785 12.0842 195.053 12.3526C195.321 12.6211 195.5 12.979 195.5 13.3369C195.5 13.6947 195.411 13.9632 195.142 14.1421C194.874 14.3211 194.695 14.5 194.337 14.5C194.069 14.5 193.711 14.3211 193.353 14.0526C192.995 13.7842 192.727 13.6053 192.548 13.6053C192.369 13.6053 192.279 13.6947 192.1 13.8737C191.742 14.2316 191.385 14.5 190.937 15.3053V20.9421C190.937 21.5684 191.027 22.0158 191.206 22.3737C191.295 22.5526 191.474 22.7316 191.742 22.9105C192.011 23.0895 192.369 23.0895 192.906 23.0895V23.5369H187.179V23.0895C187.716 23.0895 188.164 23 188.432 22.8211C188.611 22.7316 188.79 22.4632 188.879 22.1947C188.879 22.0158 188.969 21.6579 188.969 21.0316V16.7369C188.969 15.4842 188.969 14.679 188.879 14.4105C188.79 14.1421 188.7 13.9632 188.611 13.8737C188.432 13.7842 188.253 13.6947 188.074 13.6947C187.806 13.6947 187.537 13.7842 187.179 13.8737L187.09 13.4263L190.49 12.0842L191.116 11.9947Z" fill="#205AA0"/>
<path d="M214.648 21.8368C214.111 22.3737 213.575 22.8211 213.038 23.0895C212.501 23.3579 211.964 23.4474 211.338 23.4474C210.085 23.4474 209.011 22.9105 208.027 21.9263C207.133 20.9421 206.596 19.6 206.596 17.9895C206.596 16.3789 207.133 14.9474 208.117 13.6053C209.19 12.2632 210.443 11.6368 212.143 11.6368C213.127 11.6368 214.022 11.9053 214.648 12.5316V10.4737C214.648 9.22105 214.648 8.41579 214.559 8.14737C214.469 7.87895 214.38 7.7 214.29 7.52105C214.201 7.43158 214.022 7.34211 213.754 7.34211C213.575 7.34211 213.217 7.43158 212.859 7.52105L212.68 7.07368L216.08 6H216.617V18.6158C216.617 19.9579 216.617 20.6737 216.706 21.0316C216.796 21.3 216.885 21.4789 216.975 21.6579C217.154 21.7474 217.243 21.8368 217.422 21.8368C217.69 21.8368 217.959 21.7474 218.317 21.6579L218.496 22.1053L215.096 23.4474H214.559L214.648 21.8368ZM214.648 21.0316V15.3053C214.559 14.7684 214.469 14.2316 214.201 13.7842C213.933 13.3368 213.664 12.9789 213.217 12.8C212.769 12.5316 212.411 12.4421 212.054 12.4421C211.338 12.4421 210.622 12.8 210.085 13.4263C209.369 14.2316 208.922 15.4842 208.922 17.0947C208.922 18.7053 209.28 19.9579 209.996 20.8526C210.711 21.7474 211.517 22.1947 212.411 22.1947C213.127 22.1053 213.933 21.7474 214.648 21.0316Z" fill="#205AA0"/>
<path d="M222.79 11.9948V20.8526C222.79 21.5684 222.879 22.0158 222.969 22.1948C223.058 22.4632 223.237 22.5526 223.416 22.7316C223.595 22.8211 224.042 22.9105 224.579 22.9105V23.3579H218.853V22.9105C219.39 22.9105 219.837 22.8211 220.016 22.7316C220.195 22.6421 220.374 22.4632 220.463 22.1948C220.553 21.9263 220.642 21.479 220.642 20.7632V16.4684C220.642 15.3053 220.642 14.5 220.553 14.1421C220.463 13.8737 220.374 13.6948 220.284 13.6053C220.195 13.5158 220.016 13.4263 219.748 13.4263C219.479 13.4263 219.211 13.5158 218.853 13.6053L218.674 13.1579L222.253 11.8158C222.163 11.9948 222.79 11.9948 222.79 11.9948ZM221.448 6.35791C221.805 6.35791 222.074 6.44738 222.253 6.7158C222.521 6.98423 222.611 7.25265 222.611 7.52107C222.611 7.78949 222.521 8.14738 222.253 8.4158C221.984 8.68423 221.716 8.7737 221.448 8.7737C221.09 8.7737 220.821 8.68423 220.642 8.4158C220.463 8.14738 220.284 7.87896 220.284 7.52107C220.284 7.16317 220.374 6.89475 220.642 6.7158C220.821 6.53686 221.179 6.35791 221.448 6.35791Z" fill="#205AA0"/>
<path d="M272.538 11.9948V20.8526C272.538 21.5684 272.627 22.0158 272.717 22.1948C272.806 22.4632 272.985 22.5526 273.164 22.7316C273.343 22.9105 273.79 22.9105 274.327 22.9105V23.3579H268.601V22.9105C269.138 22.9105 269.585 22.8211 269.764 22.7316C269.943 22.6421 270.122 22.4632 270.211 22.1948C270.301 21.9263 270.39 21.479 270.39 20.7632V16.4684C270.39 15.3053 270.39 14.5 270.301 14.1421C270.211 13.8737 270.122 13.6948 270.032 13.6053C269.943 13.5158 269.764 13.4263 269.496 13.4263C269.227 13.4263 268.959 13.5158 268.601 13.6053L268.422 13.1579L272.001 11.8158C271.911 11.9948 272.538 11.9948 272.538 11.9948ZM271.196 6.35791C271.553 6.35791 271.822 6.44738 272.001 6.7158C272.269 6.98423 272.359 7.25265 272.359 7.52107C272.359 7.78949 272.269 8.14738 272.001 8.4158C271.732 8.68423 271.464 8.7737 271.196 8.7737C270.838 8.7737 270.569 8.68423 270.39 8.4158C270.211 8.14738 270.032 7.87896 270.032 7.52107C270.032 7.16317 270.122 6.89475 270.39 6.7158C270.659 6.53686 270.838 6.35791 271.196 6.35791Z" fill="#205AA0"/>
<path d="M249.722 6.98423V6.53687H255.448V6.98423H254.822C254.195 6.98423 253.659 7.25265 253.39 7.7895C253.211 8.05792 253.122 8.59476 253.122 9.57897V16.2895C253.122 17.9895 252.943 19.2421 252.674 20.1369C252.317 21.0316 251.69 21.8369 250.795 22.4632C249.901 23.0895 248.559 23.4474 246.948 23.4474C245.159 23.4474 243.817 23.0895 242.922 22.5527C242.027 22.0158 241.401 21.1211 240.953 20.0474C240.685 19.3316 240.595 17.9895 240.595 15.9316V9.40002C240.595 8.41581 240.417 7.70002 240.148 7.4316C239.88 7.16318 239.432 6.98423 238.806 6.98423H238.18V6.53687H245.159V6.98423H244.532C243.906 6.98423 243.369 7.16318 243.101 7.61055C242.922 7.87897 242.832 8.50529 242.832 9.40002V16.6474C242.832 17.2737 242.922 17.9895 243.011 18.8842C243.101 19.6895 243.369 20.3158 243.638 20.8527C243.906 21.3 244.353 21.6579 244.98 22.0158C245.517 22.2842 246.232 22.4632 247.038 22.4632C248.111 22.4632 249.006 22.1948 249.901 21.7474C250.706 21.3 251.332 20.6737 251.601 19.9579C251.869 19.2421 252.048 17.9895 252.048 16.2V9.40002C252.048 8.32634 251.959 7.70002 251.69 7.4316C251.422 7.07371 250.885 6.89476 250.348 6.89476H249.722V6.98423Z" fill="#205AA0"/>
<path d="M259.743 13.8737C260.995 12.2632 262.158 11.9053 263.322 11.9053C263.948 11.9053 264.395 12.0842 264.843 12.3526C265.29 12.6211 265.558 13.1579 265.827 13.8737C266.006 14.3211 266.095 15.1263 266.095 16.1105V20.9421C266.095 21.6579 266.185 22.1053 266.274 22.3737C266.364 22.5526 266.543 22.7316 266.722 22.8211C266.901 22.9105 267.258 23 267.795 23V23.4474H262.516V23H262.695C263.232 23 263.59 22.9105 263.769 22.7316C263.948 22.5526 264.127 22.3737 264.216 22.0158C264.216 21.9263 264.306 21.4789 264.306 20.8526V16.2C264.306 15.2158 264.216 14.4105 263.948 13.9632C263.679 13.5158 263.232 13.2474 262.695 13.2474C261.801 13.2474 260.816 13.7842 259.922 14.8579V20.7632C259.922 21.5684 259.922 22.0158 260.011 22.1947C260.101 22.4632 260.279 22.6421 260.458 22.7316C260.637 22.8211 260.995 22.9105 261.622 22.9105V23.3579H256.343V22.9105H256.611C257.148 22.9105 257.506 22.7316 257.685 22.4632C257.864 22.1947 257.864 21.6579 257.864 20.8526V16.6474C257.864 15.3053 257.864 14.5 257.774 14.1421C257.685 13.6053 257.595 13.2474 257.058 13.1579C256.879 13.1579 256.611 13.2474 256.253 13.3368L256.074 12.8895L259.385 11.7263H259.922L259.743 13.8737Z" fill="#205AA0"/>
<path d="M290.79 13.8737C292.042 12.2632 293.205 11.9053 294.368 11.9053C294.995 11.9053 295.442 12.0842 295.89 12.3526C296.337 12.6211 296.605 13.1579 296.874 13.8737C297.053 14.3211 297.142 15.1263 297.142 16.1105V20.9421C297.142 21.6579 297.232 22.1053 297.321 22.3737C297.411 22.5526 297.59 22.7316 297.768 22.8211C297.947 22.9105 298.305 23 298.842 23V23.4474H293.563V23H293.742C294.279 23 294.637 22.9105 294.816 22.7316C294.995 22.5526 295.174 22.3737 295.263 22.0158C295.263 21.9263 295.353 21.4789 295.353 20.8526V16.2C295.353 15.2158 295.263 14.4105 294.995 13.9632C294.726 13.5158 294.279 13.2474 293.742 13.2474C292.847 13.2474 291.863 13.7842 290.968 14.8579V20.7632C290.968 21.5684 290.968 22.0158 291.058 22.1947C291.147 22.4632 291.326 22.6421 291.505 22.7316C291.684 22.8211 292.042 22.9105 292.668 22.9105V23.3579H287.39V22.9105H287.658C288.195 22.9105 288.553 22.7316 288.732 22.4632C288.911 22.1947 288.911 21.6579 288.911 20.8526V16.6474C288.911 15.3053 288.911 14.5 288.821 14.1421C288.732 13.6053 288.642 13.2474 288.105 13.1579C287.926 13.1579 287.658 13.2474 287.3 13.3368L287.121 12.8895L290.432 11.7263H290.968L290.79 13.8737Z" fill="#205AA0"/>
<path d="M302.689 15.4842C300.9 15.4842 299.379 13.9632 299.379 12.1737C299.379 10.3842 300.9 8.86316 302.689 8.86316C304.479 8.86316 306 10.3842 306 12.1737C306 14.0526 304.568 15.4842 302.689 15.4842ZM302.689 9.57895C301.258 9.57895 300.095 10.7421 300.095 12.1737C300.095 13.6053 301.258 14.7684 302.689 14.7684C304.121 14.7684 305.284 13.6053 305.284 12.1737C305.374 10.7421 304.21 9.57895 302.689 9.57895Z" fill="#205AA0"/>
<path d="M302.51 11.9052C302.689 11.9052 302.868 11.9052 302.868 11.8157C302.958 11.7263 302.958 11.6368 302.958 11.4578C302.958 11.2789 302.958 11.1894 302.868 11.0999C302.779 11.0105 302.689 11.0105 302.51 11.0105H302.153V11.9052H302.51ZM302.153 12.5315V13.8736H301.258V10.3842H302.6C303.047 10.3842 303.405 10.4736 303.584 10.6526C303.763 10.8315 303.942 11.0105 303.942 11.3684C303.942 11.6368 303.853 11.8157 303.763 11.9052C303.674 12.0842 303.495 12.1736 303.226 12.2631C303.316 12.2631 303.495 12.3526 303.584 12.4421C303.674 12.5315 303.763 12.7105 303.853 12.8894L304.3 13.8736H303.316L302.868 12.9789C302.779 12.7999 302.689 12.7105 302.6 12.621C302.51 12.5315 302.421 12.5315 302.242 12.5315H302.153Z" fill="#205AA0"/>
<path d="M299.022 29.6211H0.179688V33.2H299.022V29.6211Z" fill="#205AA0"/>
<path d="M0.894634 48.1423C1.16306 47.8739 1.342 46.4423 1.342 46.4423C1.342 46.4423 1.6999 45.995 2.50516 45.9055C2.77358 45.9055 3.042 45.9055 3.13148 45.816C3.3999 45.6371 3.3999 45.1002 3.48937 44.7423C3.57884 44.295 4.92095 42.5055 5.90516 42.6844C6.88937 42.8634 6.53148 42.6844 6.71042 42.416C6.88937 42.1476 6.88937 41.4318 7.51569 41.4318C8.142 41.4318 8.05253 42.5055 9.03674 41.7002C10.021 40.895 10.2894 40.4476 11.1841 40.5371C12.0788 40.6265 11.9894 40.1792 11.9894 39.9107C11.9894 39.6423 12.4367 39.6423 12.6157 39.6423C12.7946 39.6423 13.6894 38.1213 14.4946 37.7634C15.2999 37.4055 15.3894 36.9581 15.3894 36.6002C15.3894 36.2423 15.8367 36.1529 16.0157 36.4213C16.1946 36.6897 16.1946 36.6897 16.2841 36.6897C16.3736 36.6897 16.4631 36.6002 16.4631 36.4213C16.4631 36.2423 17.1788 35.9739 17.2683 36.3318C17.3578 36.6897 17.5367 36.8686 17.7157 36.8686C17.8946 36.8686 18.6999 36.4213 18.9683 35.795C19.2367 35.1686 20.1315 34.9897 20.4894 34.9897C20.8473 34.9897 21.4736 34.9002 21.6525 35.1686C21.8315 35.4371 22.3683 34.9897 22.5473 34.6318C22.7262 34.2739 23.2631 33.0213 23.7999 32.8423C24.3367 32.6634 24.4262 31.6792 24.4262 31.5002C24.4262 31.3213 24.6052 31.1423 24.8736 31.0528C25.142 30.9634 25.3209 30.695 25.3209 30.3371C25.3209 29.9792 25.2315 29.0844 25.5894 28.9055C25.9473 28.7265 25.7683 27.8318 25.7683 27.8318C25.7683 27.8318 46.7946 27.8318 48.2262 27.8318C49.6578 27.8318 76.0525 27.8318 76.0525 27.8318C76.0525 27.8318 76.9473 27.6529 77.1262 27.7423C77.3052 27.8318 77.3052 27.8318 77.3946 27.7423C77.4841 27.6529 77.5736 27.3844 77.9315 27.3844C78.2894 27.3844 79.3631 27.295 79.4525 27.4739C79.542 27.6529 79.4525 28.2792 79.4525 28.3686C79.4525 28.4581 78.8262 28.2792 78.8262 28.4581C78.8262 28.6371 78.8262 28.816 78.9157 28.816C79.0052 28.816 79.542 29.2634 79.6315 29.2634C79.7209 29.2634 80.1683 30.9634 80.2578 31.0528C80.3473 31.1423 81.242 33.3792 81.1525 33.5581C81.063 33.7371 81.0631 34.0055 80.9736 34.0055C80.8841 34.0055 80.7052 33.916 80.6157 33.7371C80.5262 33.5581 80.1683 32.6634 80.0788 32.5739C79.9894 32.4844 79.7209 32.395 79.6315 32.4844C79.542 32.5739 79.4525 32.7529 79.4525 32.6634C79.4525 32.5739 79.0946 31.7686 78.8262 31.6792C78.5578 31.5897 78.1999 31.5002 78.1104 31.2318C78.0209 30.9634 77.663 30.695 77.5736 30.695C77.4841 30.695 77.3052 30.695 77.3052 30.8739C77.3052 31.0529 77.3946 31.0529 77.4841 31.1423C77.5736 31.2318 77.5736 31.7686 77.7525 31.7686C77.9315 31.7686 78.1999 31.9476 78.2894 32.0371C78.3788 32.1265 78.4683 32.9318 78.6473 33.0213C78.8262 33.1107 78.7367 33.2002 78.7367 33.2897C78.7367 33.3792 78.6473 33.4686 78.5578 33.4686C78.4683 33.4686 78.4683 33.5581 78.1999 33.5581C77.9315 33.5581 77.5736 33.3792 77.3946 33.1107C77.2157 32.8423 77.2157 32.7529 77.2157 32.5739C77.2157 32.395 76.6788 32.3055 76.5894 32.395C76.4999 32.4844 76.5894 32.4844 76.5894 32.5739C76.5894 32.6634 76.8578 32.9318 77.0367 33.0213C77.2157 33.1107 77.3052 33.2897 77.3946 33.4686C77.4841 33.6476 77.0367 33.916 76.9473 33.916C76.8578 33.916 76.4999 33.8265 76.4999 33.6476C76.4999 33.4686 75.7841 32.9318 75.7841 32.9318C75.7841 32.9318 75.6052 33.0213 75.4262 32.9318C75.2473 32.8423 75.3367 32.8423 75.1578 32.7528C74.9788 32.6634 74.7999 32.4844 74.7104 32.4844C74.6209 32.4844 74.7999 32.9318 74.8894 33.0213C74.9788 33.1107 75.6052 33.2897 75.7841 33.3792C75.9631 33.4686 75.9631 33.6476 75.8736 33.7371C75.8736 33.8265 75.4262 34.3634 75.2473 34.4529C75.0683 34.5423 74.3525 34.7213 74.2631 34.7213C74.1736 34.7213 73.8157 34.6318 73.7262 34.6318C73.6367 34.6318 73.6367 34.2739 73.5473 34.2739C73.4578 34.2739 73.3683 34.5423 73.2788 34.5423C73.1894 34.5423 73.1894 34.7213 73.0999 34.7213C73.0104 34.7213 72.921 34.6318 72.8315 34.4529C72.742 34.2739 72.563 33.916 72.563 33.8265C72.563 33.7371 72.6525 33.6476 72.742 33.6476C72.8315 33.6476 72.742 33.2897 72.742 33.2897C72.742 33.2897 72.5631 33.0213 72.3841 33.0213C72.2052 33.1107 72.1157 33.2002 71.9367 33.4686C71.9367 33.6476 72.2052 33.7371 72.2946 34.0055C72.2946 34.1844 72.4736 35.0792 72.563 35.1686C72.6525 35.2581 72.563 35.9739 72.742 35.9739C72.9209 35.9739 73.0104 35.795 73.0999 35.795C73.1894 35.795 73.6367 35.795 73.7262 35.616C73.8157 35.4371 74.1736 35.616 74.3525 35.3476C74.5315 35.0792 74.7999 35.0792 74.9788 35.0792C75.1578 35.0792 75.2473 35.0792 75.2473 35.2581C75.2473 35.4371 75.4262 35.2581 75.4262 35.3476C75.4262 35.4371 75.5157 35.1686 75.6946 35.1686C75.8736 35.1686 75.8736 35.0792 75.9631 35.1686C76.0525 35.2581 76.0525 35.5265 76.2315 35.616C76.4104 35.7055 76.4104 35.795 76.4999 35.795C76.5894 35.795 76.6788 35.5265 76.8578 35.4371C77.0367 35.3476 77.3946 35.0792 77.4841 35.0792C77.5736 35.0792 77.9315 34.9897 78.1104 34.9002C78.2894 34.8107 78.3788 34.7213 78.5578 34.7213C78.7367 34.7213 78.8262 34.6318 78.8262 34.5423C78.8262 34.4528 79.0946 34.5423 79.0946 34.6318C79.0946 34.7213 79.1841 34.9897 79.1841 34.9897C79.1841 34.9897 79.1841 35.0792 79.0946 35.1686C79.0052 35.2581 78.7367 35.1686 78.6473 35.2581C78.5578 35.3476 78.5578 35.4371 78.6473 35.4371C78.7367 35.4371 78.8262 35.5265 78.8262 35.616C78.8262 35.7055 79.0052 35.795 79.0052 35.8844C79.0052 35.9739 79.0052 36.0634 79.0052 36.1528C79.0052 36.2423 78.8262 36.6002 78.6473 36.6897C78.4683 36.7792 78.5578 36.8686 78.5578 36.9581C78.5578 37.0476 78.7367 37.1371 78.8262 37.2265C78.9157 37.316 78.9157 37.495 78.8262 37.5844C78.7367 37.6739 78.5578 37.7634 78.5578 37.8528C78.5578 37.9423 78.7367 38.1213 78.8262 38.3002C78.9157 38.4792 78.8262 39.195 78.9157 39.2844C79.0052 39.3739 79.1841 39.3739 79.3631 39.3739C79.542 39.3739 79.8999 39.1055 79.8999 39.016C79.8999 38.9265 79.4525 38.7476 79.4525 38.5686C79.4525 38.3897 79.4525 38.1213 79.2736 38.0318C79.0946 37.9423 79.1841 37.6739 79.2736 37.6739C79.3631 37.6739 79.4525 37.4055 79.4525 37.0476C79.4525 36.6897 79.4525 35.9739 79.8104 35.8844C80.1683 35.795 80.4367 35.8844 80.5262 35.616C80.6157 35.3476 80.8841 34.9002 80.9736 34.7213C81.0631 34.5423 80.9736 34.5423 81.063 34.5423C81.1525 34.5423 81.3315 34.7213 81.3315 34.8107C81.3315 34.9002 81.3315 35.5265 81.5999 35.616C81.8683 35.7055 81.9578 36.8686 82.0473 37.0476C82.1367 37.2265 82.4052 37.495 82.4052 37.495C82.4052 37.495 82.4946 37.495 82.4946 37.5844C82.4946 37.6739 82.0473 37.6739 82.0473 37.8528C82.0473 38.0318 82.1367 38.3002 81.9578 38.3897C81.7788 38.4792 81.6894 38.4792 81.6894 38.5686C81.6894 38.6581 81.9578 38.9265 82.0473 39.016C82.1367 39.1055 82.1367 39.195 82.1367 39.2844C82.1367 39.3739 82.0473 39.6423 81.8683 39.6423C81.6894 39.6423 81.421 39.3739 81.3315 39.3739C81.242 39.3739 81.063 39.4634 81.063 39.6423C81.063 39.8213 80.8841 40.4476 80.5262 40.6265C80.1683 40.8055 79.9894 41.1634 79.9894 41.3423C79.9894 41.5213 79.7209 42.0581 79.542 42.3265C79.3631 42.595 78.8262 43.2213 78.5578 43.2213C78.2894 43.2213 77.842 43.2213 77.842 43.2213C77.842 43.2213 77.663 43.4002 77.5736 43.4897C77.4841 43.5792 77.3052 43.4002 77.1262 43.2213C76.9473 43.0423 76.6788 42.7739 76.6788 42.595C76.6788 42.416 76.7683 41.8792 76.5894 41.8792C76.4104 41.8792 76.2315 41.8792 76.2315 41.9686C76.2315 42.0581 76.2315 42.0581 76.142 42.0581C76.0525 42.0581 75.7841 42.1476 75.6946 42.2371C75.6052 42.3265 75.4262 42.5055 75.4262 42.595C75.4262 42.6844 75.2473 42.7739 75.2473 42.7739C75.2473 42.7739 74.7999 42.9528 74.7999 42.8634C74.7999 42.7739 74.5315 42.2371 74.3525 42.2371C74.1736 42.2371 74.2631 41.8792 74.2631 41.7897C74.2631 41.7002 74.2631 41.4318 74.3525 41.4318C74.442 41.4318 74.9788 41.5213 74.9788 41.2528C74.9788 40.9844 74.9788 40.4476 74.8894 40.4476C74.7999 40.4476 74.7999 40.716 74.7104 40.716C74.6209 40.716 74.5315 40.9844 74.5315 40.9844C74.5315 40.9844 74.3525 40.8055 74.1736 40.8055C73.9946 40.8055 73.7262 40.8055 73.5473 40.9844C73.3683 41.1634 73.2788 41.1634 73.2788 41.3423C73.2788 41.5213 73.4578 41.5213 73.5473 41.6107C73.6367 41.7002 73.9052 41.6107 73.9052 41.7897C73.9052 41.9686 73.8157 42.6844 73.9946 42.6844C74.1736 42.6844 74.2631 42.8634 74.1736 42.9528C74.0841 43.0423 73.9946 43.1318 73.8157 43.1318C73.6367 43.1318 73.4578 42.9528 73.1894 42.8634C72.9209 42.7739 72.5631 42.5055 72.3841 42.416C72.2052 42.3265 72.2946 42.2371 72.2946 42.2371C72.2946 42.2371 72.3841 42.0581 72.2946 42.0581C72.2052 42.0581 71.7578 42.0581 71.7578 42.0581C71.7578 42.0581 71.6683 42.2371 71.5788 42.2371C71.4894 42.2371 71.3999 42.0581 71.3999 42.0581C71.3999 42.0581 70.7736 42.0581 70.6841 41.9686C70.5946 41.8792 70.0578 41.2528 69.8788 41.1634C69.6999 41.0739 69.342 41.0739 69.2525 41.1634C69.1631 41.2528 69.1631 41.4318 69.2525 41.4318C69.342 41.4318 69.6104 41.4318 69.6999 41.5213C69.7894 41.6107 69.9683 41.8792 70.0578 41.9686C70.1473 42.0581 70.5052 42.416 71.2209 42.416C71.9367 42.416 72.563 42.6844 72.742 42.8634C72.9209 43.0423 73.1894 43.8476 73.2788 43.8476C73.3683 43.8476 73.6367 43.9371 73.6367 44.116C73.6367 44.295 73.6367 44.6528 73.7262 44.7423C73.8157 44.8318 73.9946 45.1002 74.1736 45.1897C74.3525 45.2792 74.442 45.3686 74.3525 45.4581C74.2631 45.5476 74.1736 45.6371 74.0841 45.6371C73.9946 45.6371 73.5473 45.6371 73.4578 45.5476C73.3683 45.4581 73.4578 45.4581 73.3683 45.4581C73.2788 45.4581 73.2788 45.5476 73.2788 45.6371C73.2788 45.7265 73.0999 45.9055 73.0104 45.995C72.9209 46.0844 72.6525 46.2634 72.742 46.3528C72.8315 46.4423 72.9209 46.5318 73.0999 46.3528C73.2788 46.1739 73.6367 46.0844 73.7262 45.995C73.8157 45.9055 73.9052 45.816 73.9052 45.9055C73.9052 45.995 74.0841 46.2634 74.0841 46.4423C74.0841 46.6213 74.0841 47.3371 74.0841 47.3371C74.0841 47.3371 73.6367 47.695 73.4578 47.695C73.2788 47.695 73.0104 48.0528 72.921 48.1423C72.8315 48.2318 72.8315 48.4107 72.563 48.5002C72.2946 48.5897 71.7578 48.3213 71.5788 48.1423C71.3999 47.9634 71.042 47.3371 70.8631 47.2476C70.6841 47.1581 70.5052 46.9792 70.4157 47.0686C70.3262 47.1581 70.4157 47.3371 70.4157 47.3371C70.4157 47.3371 71.042 48.0528 71.1315 48.2318C71.2209 48.4107 71.8473 48.7686 72.0262 48.7686C72.2052 48.7686 72.6525 48.8581 72.742 48.8581C72.8315 48.8581 73.0999 48.6792 73.1894 48.5002C73.2788 48.3213 73.4578 48.2318 73.6367 48.2318C73.8157 48.2318 74.0841 48.2318 74.1736 48.2318C74.2631 48.2318 74.3525 48.4107 74.442 48.4107C74.5315 48.4107 74.6209 48.4107 74.7104 48.2318C74.7999 48.0528 75.1578 47.9634 75.3367 47.8739C75.5157 47.7844 75.3367 47.4265 75.4262 47.3371C75.5157 47.2476 75.6052 46.8897 75.7841 46.8897C75.9631 46.8897 76.0525 47.0686 76.142 47.2476C76.2315 47.4265 76.2315 47.3371 76.142 47.516C76.0525 47.695 76.0525 48.1423 76.142 48.1423C76.2315 48.1423 76.4999 47.9634 76.6788 47.8739C76.8578 47.7844 77.0367 47.6055 77.1262 47.695C77.2157 47.7844 77.5736 48.0528 77.5736 48.1423C77.5736 48.2318 77.663 48.5002 77.5736 48.5002C77.4841 48.5002 77.2157 48.5897 77.1262 48.6792C77.0367 48.7686 76.7683 49.0371 76.7683 49.0371C76.7683 49.0371 76.9473 49.0371 76.9473 49.216C76.9473 49.395 76.6788 49.395 76.5894 49.4844C76.4999 49.5739 76.142 49.5739 76.142 49.7528C76.142 49.9318 76.2315 50.0213 76.3209 50.0213C76.4104 50.0213 76.3209 50.1107 76.3209 50.2897C76.3209 50.4686 76.3209 50.5581 76.0525 50.6476C75.7841 50.7371 75.3367 51.0055 75.2473 51.2739C75.1578 51.5423 74.9788 51.6318 74.7999 51.7213C74.6209 51.8107 74.5315 51.7213 74.5315 51.5423C74.5315 51.3634 74.7104 51.1844 74.6209 51.0055C74.5315 50.8265 74.442 50.8265 74.442 50.8265C74.442 50.8265 74.2631 50.916 74.1736 51.0055C74.0841 51.095 74.1736 51.4528 74.0841 51.4528C73.9946 51.4528 73.8157 51.5423 73.7262 51.2739C73.6367 51.0055 73.6367 51.0055 73.5473 51.0055C73.4578 51.0055 73.4578 51.1844 73.3683 51.2739C73.2788 51.3634 72.4736 51.3634 72.3841 51.5423C72.2946 51.7213 72.3841 51.7213 72.2052 51.7213C72.0262 51.7213 71.3999 51.7213 71.3104 51.8107C71.2209 51.9002 70.9525 51.9897 70.6841 51.9897C70.4157 51.9897 70.2367 52.1686 70.0578 52.1686C69.8788 52.1686 69.6104 52.0792 69.5209 51.9897C69.4315 51.9002 69.342 51.9897 69.342 52.0792C69.342 52.1686 69.4315 52.2581 69.4315 52.4371C69.4315 52.616 69.2525 52.9739 69.163 53.0634C69.0736 53.1528 68.3578 52.9739 68.3578 53.2423C68.3578 53.5107 68.1788 53.8686 68.0894 53.9581C67.9999 54.0476 67.8209 54.316 67.7315 54.4055C67.642 54.495 67.642 54.495 67.4631 54.495C67.2841 54.495 67.1052 54.4055 67.1052 54.1371C67.1052 53.8686 67.0157 53.6897 67.1052 53.6002C67.1946 53.5107 67.2841 53.6002 67.2841 53.2423C67.2841 52.8844 67.2841 52.795 67.1946 52.7055C67.1052 52.616 67.0157 52.3476 66.9262 52.2581C66.8367 52.1686 66.8367 51.7213 66.6578 51.7213C66.4788 51.7213 66.5683 51.4529 66.2999 51.6318C66.0315 51.8107 66.2999 51.9002 66.3894 51.9002C66.4788 51.9002 66.6578 52.0792 66.6578 52.2581C66.6578 52.4371 66.6578 52.616 66.7473 52.616C66.8367 52.616 66.9262 52.795 66.9262 52.8844C66.9262 52.9739 66.8367 53.1528 66.7473 53.2423C66.6578 53.3318 66.5683 53.3318 66.5683 53.5107C66.5683 53.6897 66.5683 53.7792 66.5683 53.8686C66.5683 53.9581 66.6578 53.9581 66.7473 54.2265C66.8367 54.495 67.1946 54.5844 67.1946 54.7634C67.1946 54.9423 66.8367 55.0318 66.4788 55.1213C66.1209 55.2107 65.6736 55.6581 65.4946 55.8371C65.3157 56.016 63.6157 57.6265 63.5262 57.9844C63.4367 58.3423 63.2578 58.3423 63.0788 58.4318C62.8999 58.5213 63.0788 59.0581 63.0788 59.1476C63.0788 59.2371 63.0788 59.3265 62.8999 59.416C62.7209 59.5055 62.4525 59.6844 62.4525 59.9529C62.4525 60.2213 62.542 60.2213 62.7209 60.2213C62.8999 60.2213 63.1683 60.4002 63.0788 60.5792C62.9894 60.7581 62.7209 61.116 62.7209 61.4739C62.7209 61.8318 62.4525 62.2792 62.1841 62.2792C61.9157 62.2792 61.7367 61.8318 61.7367 61.6528C61.7367 61.4739 61.9157 61.295 61.9157 60.7581C61.9157 60.2213 61.8262 60.1318 61.7367 60.0423C61.6473 59.9529 61.4683 59.7739 61.4683 59.9529C61.4683 60.1318 61.4683 60.0423 61.4683 60.1318C61.4683 60.2213 61.4683 60.1318 61.4683 60.5792C61.4683 61.0265 61.4683 61.7423 61.3788 61.8318C61.2894 61.9213 60.9315 62.816 60.4841 62.816C60.0367 62.816 59.6788 62.5476 59.4999 62.5476C59.3209 62.5476 59.0525 62.7265 59.0525 62.9055C59.0525 63.0844 58.6052 62.995 58.4262 62.995C58.2473 62.995 57.5315 62.995 57.3525 63.0844C57.1736 63.1739 56.8157 63.2634 56.6367 63.3528C56.4578 63.4423 56.0104 63.4423 56.0104 63.6213C56.0104 63.8002 55.6525 63.8002 55.5631 63.8897C55.4736 63.9792 44.8262 51.7213 44.8262 51.7213L35.0736 51.8107C35.0736 51.8107 34.8946 51.9002 34.7157 51.9002C34.5367 51.9002 34.3578 51.9002 34.1788 51.6318C33.9999 51.3634 34.0894 51.1844 34.1788 51.095C34.2683 51.0055 34.2683 50.6476 34.2683 50.5581C34.2683 50.4686 33.2841 49.1265 33.1052 48.9476C32.9262 48.7686 33.0157 49.0371 32.9262 49.1265C32.8367 49.216 32.7473 49.216 32.6578 49.0371C32.5683 48.8581 32.7473 48.3213 32.5683 48.3213C32.3894 48.3213 31.4946 48.3213 31.4946 48.3213C31.4946 48.3213 31.2262 48.2318 31.1367 47.9634C31.0473 47.695 30.9578 47.695 30.8683 47.695C30.7788 47.695 30.6894 47.6055 30.6894 47.6055C30.6894 47.6055 30.6894 47.516 30.5999 47.516C30.5104 47.516 30.5104 47.695 30.4209 47.7844C30.3315 47.8739 30.242 47.8739 30.242 47.9634C30.242 48.0528 30.242 48.0529 29.7946 48.0529C29.3473 48.0529 29.4367 47.8739 29.1683 47.8739C28.8999 47.8739 19.6841 47.1581 18.521 47.516C17.3578 47.8739 17.2683 47.516 16.9104 47.695C16.5525 47.8739 16.2841 48.1423 16.1052 48.1423C15.9262 48.1423 15.4788 48.4107 15.2104 48.6792C14.942 48.9476 14.6736 48.7686 14.3157 48.8581C13.9578 48.9476 13.5999 48.9476 13.5104 49.0371C13.4209 49.1265 13.3315 49.395 13.0631 49.395C12.7946 49.395 11.1841 49.7528 10.8262 49.8423C10.4683 49.9318 10.2894 49.8423 10.1104 49.8423C9.93148 49.8423 9.39463 49.5739 9.03674 49.5739C8.67884 49.5739 8.23148 49.5739 7.96306 49.4844C7.69463 49.395 7.78411 49.3055 7.60516 49.3055C7.42621 49.3055 7.60516 49.4844 7.15779 49.5739C6.71042 49.6634 2.59463 49.395 2.32621 49.395C2.05779 49.395 0.447266 49.395 0.447266 49.395C0.447266 49.395 0.715687 48.5897 0.894634 48.1423Z" fill="#205AA0"/>
<path d="M82.6732 35.437C82.6732 35.437 82.2259 34.5423 82.0469 34.5423C81.868 34.5423 81.868 34.3633 81.868 34.2738C81.868 34.1844 81.868 33.6475 81.7785 33.6475C81.689 33.6475 81.5995 33.3791 81.5101 33.2002C81.4206 33.0212 81.4206 32.9317 81.4206 32.8423C81.4206 32.7528 81.5995 32.7528 81.5995 32.6633C81.5995 32.5738 81.5101 32.4844 81.5101 32.4844C81.5101 32.4844 81.1522 32.3949 81.1522 32.216C81.1522 32.037 81.1522 31.6791 80.9732 31.6791C80.7943 31.6791 80.9732 31.1423 80.9732 31.1423C80.9732 31.1423 80.7943 31.1423 80.7943 31.0528C80.7943 30.9633 80.7943 30.6949 80.7048 30.6949C80.6153 30.6949 80.5259 30.2475 80.5259 30.0686C80.5259 29.8896 80.2574 29.6212 80.2574 29.6212C80.2574 29.6212 80.168 29.5317 80.168 29.3528C80.168 29.1738 80.168 29.0844 80.2574 29.0844C80.3469 29.0844 80.4364 29.0844 80.4364 28.9949C80.4364 28.9054 80.4364 28.1896 80.4364 28.1896L80.2574 28.1002C80.2574 28.1002 80.168 28.0107 80.168 27.9212C80.168 27.8317 80.168 27.4738 80.2574 27.4738C80.3469 27.4738 80.6153 27.3844 80.7048 27.4738C80.7943 27.5633 80.8838 27.5633 80.8838 27.8317C80.8838 28.1002 80.8838 29.1738 80.9732 29.1738C81.0627 29.1738 81.1522 29.4423 81.1522 29.7107C81.1522 29.9791 81.1522 29.9791 81.2417 30.0686C81.3311 30.1581 81.3311 30.516 81.4206 30.516C81.5101 30.516 81.5995 30.7844 81.5995 31.0528C81.5995 31.3212 81.5995 31.3212 81.689 31.4107C81.7785 31.5002 81.868 31.5002 81.868 31.6791C81.868 31.8581 81.868 31.8581 81.9574 31.9475C82.0469 32.037 82.1364 31.9475 82.2259 32.1265C82.3153 32.3054 82.3153 32.4844 82.4048 32.4844C82.4943 32.4844 82.5838 32.8423 82.6732 32.9317C82.7627 33.0212 83.0311 33.3791 83.1206 33.5581C83.2101 33.737 83.389 34.3633 83.568 34.5423C83.7469 34.7212 83.6574 34.9002 83.6574 34.9896C83.6574 35.0791 83.8364 35.1686 83.8364 35.2581C83.8364 35.3475 83.8364 35.5265 83.8364 35.616C83.8364 35.7054 84.1048 35.7054 84.1048 35.9738C84.1048 36.2423 83.9259 36.4212 83.8364 36.5107C83.7469 36.6002 83.568 36.5107 83.389 36.4212C83.2101 36.3317 83.2101 36.2423 83.2101 36.0633C83.2101 35.8844 82.6732 35.437 82.6732 35.437Z" fill="#205AA0"/>
<path d="M74.4422 43.5791C74.6212 43.5791 74.8001 44.0265 74.8001 44.2949C74.8001 44.5633 74.8896 44.6528 74.9791 44.7423C75.0686 44.8317 75.2475 44.9212 75.2475 45.0107C75.2475 45.1002 75.158 45.2791 75.0686 45.2791C74.9791 45.2791 74.7107 45.2791 74.5317 45.1896C74.3528 45.1002 74.1738 44.6528 74.1738 44.4738C74.1738 44.2949 74.2633 43.5791 74.4422 43.5791Z" fill="#205AA0"/>
<path d="M63.7059 59.6844L64.0638 59.416L64.2428 58.9686L64.3322 58.6107L63.9743 58.4318L63.6164 58.5212V58.9686L63.527 59.237L63.4375 59.5054L63.7059 59.6844Z" fill="#205AA0"/>
<path d="M66.8367 55.5686C66.9261 55.6581 66.8367 56.1949 66.6577 56.1949C66.4788 56.1949 66.2998 56.1949 66.2103 56.3739C66.1209 56.5528 66.1209 56.7318 65.8524 56.7318C65.584 56.7318 65.4051 56.6423 65.3156 56.8212C65.2261 57.0002 64.9577 57.1791 64.9577 57.3581C64.9577 57.537 64.6893 57.716 64.5998 57.716C64.5103 57.716 64.3314 57.6265 64.4209 57.4476C64.5103 57.2686 64.5998 57.1791 64.6893 57.0002C64.7788 56.8212 65.584 56.1949 65.8524 56.016C66.1209 55.837 66.1209 55.5686 66.3893 55.5686C66.6577 55.5686 66.8367 55.5686 66.8367 55.5686Z" fill="#205AA0"/>
<path d="M71.8477 52.6159C71.5793 52.6159 70.953 52.7949 70.8635 52.9738C70.774 53.1528 70.774 53.2423 70.4161 53.2423C70.0582 53.2423 69.9688 52.9738 69.9688 52.7949C69.9688 52.6159 70.3266 52.437 70.5056 52.3475C70.6845 52.258 70.774 52.3475 70.953 52.1686C71.1319 51.9896 71.9372 52.1686 72.1161 52.0791C72.2951 51.9896 72.2951 51.9896 72.474 51.9896C72.653 51.9896 73.3688 51.9896 73.3688 51.9896C73.3688 51.9896 73.5477 51.9896 73.5477 52.0791C73.5477 52.1686 73.4582 52.258 73.3688 52.3475C73.2793 52.437 72.474 52.3475 72.474 52.5265C72.474 52.7054 72.5635 52.6159 72.474 52.6159C72.3845 52.6159 72.2951 52.5265 72.2056 52.5265C72.1161 52.5265 71.8477 52.6159 71.8477 52.6159Z" fill="#205AA0"/>
<path d="M74.5312 52.7949C74.5312 52.9738 74.7997 53.1528 74.8891 53.1528C74.9786 53.1528 75.426 52.8844 75.5155 52.7054C75.6049 52.5265 75.6049 52.7054 75.6944 52.5265C75.7839 52.3475 75.8734 52.437 75.8734 52.258C75.8734 52.0791 76.5891 51.3633 76.7681 51.3633C76.947 51.3633 76.947 50.737 77.0365 50.737C77.126 50.737 77.2155 50.5581 77.3049 50.4686C77.3944 50.3791 78.4681 48.5896 78.7365 48.5896C79.0049 48.5896 79.0944 47.8738 79.1839 47.7844C79.2734 47.6949 79.3628 47.7844 79.3628 47.6054C79.3628 47.4265 79.5418 47.5159 79.5418 47.4265C79.5418 47.337 79.5418 46.8896 79.7207 46.8896C79.8997 46.8896 79.8102 46.8002 79.8102 46.7107C79.8102 46.6212 79.9892 46.6212 79.9892 46.5317C79.9892 46.4423 79.8997 46.4423 79.8102 46.4423C79.7207 46.4423 79.3628 46.7107 79.1839 46.7107C79.0049 46.7107 79.0049 47.337 78.7365 47.6054C78.4681 47.8738 78.2891 48.4107 77.8418 48.5002C77.6628 48.7686 77.3944 48.9475 77.2155 49.1265C77.126 49.3949 76.7681 49.8423 76.7681 50.1107C76.7681 50.3791 76.4102 50.8265 76.2313 50.8265C76.0523 50.8265 75.6944 51.0054 75.6049 51.0949C75.5155 51.1844 75.5155 51.4528 75.426 51.5423C75.3365 51.6317 75.247 51.9896 75.247 52.0791C75.247 52.1686 75.0681 52.5265 74.8891 52.5265C74.7102 52.5265 74.5312 52.7949 74.5312 52.7949Z" fill="#205AA0"/>
<path d="M80.6163 46.7107C80.6163 46.7107 80.6163 46.3528 80.7057 46.3528C80.7952 46.3528 81.0636 46.3528 81.0636 46.2633C81.0636 46.1738 80.8847 45.7264 80.7057 45.7264C80.5268 45.7264 80.3478 45.9054 80.3478 45.9949C80.3478 46.0843 80.2584 46.9791 80.6163 46.7107Z" fill="#205AA0"/>
<path d="M82.1368 45.5475C82.1368 45.458 82.4947 45.5475 82.4947 45.3685C82.4947 45.1896 82.3158 45.2791 82.3158 45.1001C82.3158 44.9212 82.1368 45.0107 82.0473 45.0107C81.9579 45.0107 81.6895 45.0107 81.6895 45.1896C81.6895 45.2791 81.6895 45.5475 81.6895 45.637C81.6895 45.7264 81.7789 45.637 81.7789 45.637C81.8684 45.637 81.9579 45.637 82.0473 45.637C82.1368 45.637 82.1368 45.637 82.1368 45.5475Z" fill="#205AA0"/>
<path d="M84.7317 44.0265C84.9107 43.8475 84.8212 43.1317 84.9107 42.9528C85.0001 42.7738 84.8212 42.3265 85.0001 42.3265C85.1791 42.3265 85.1791 42.1475 85.0896 42.0581C85.0001 41.9686 85.0001 41.8791 84.9107 41.8791C84.8212 41.8791 84.8212 41.7896 84.8212 41.4317C84.8212 41.0738 84.9107 40.8054 84.7317 40.8054C84.5528 40.8054 84.3738 40.8054 84.3738 40.8054V40.8949C84.3738 40.8949 84.3738 40.9844 84.2844 40.9844C84.1949 40.9844 84.0159 40.9844 84.1054 41.2528C84.1949 41.5212 84.3738 41.7002 84.3738 41.9686C84.3738 42.237 84.2844 42.1475 84.2844 42.1475C84.2844 42.1475 84.1949 42.0581 84.1949 42.3265C84.1949 42.5949 84.1949 42.7738 84.1054 42.9528C84.0159 43.1317 84.0159 43.2212 83.9265 43.4002C83.837 43.5791 83.9265 43.6686 83.837 43.7581C83.7475 43.8475 83.2107 43.937 83.1212 43.937C83.0317 43.937 82.6738 44.5633 82.6738 44.6528C82.6738 44.7423 82.6738 45.1896 82.8528 45.1896C83.0317 45.1896 83.0317 44.8317 83.2107 44.7423C83.3896 44.6528 83.5686 44.5633 83.9265 44.4738C84.2843 44.3844 84.1949 44.2949 84.1949 44.2949C84.1949 44.2949 84.5528 44.1159 84.7317 44.0265Z" fill="#205AA0"/>
<path d="M83.568 36.4212C83.747 36.3318 83.8364 35.8844 83.7469 35.616C83.6575 35.3476 83.4785 35.1686 83.3891 34.9002C83.2996 34.6318 83.1206 33.916 82.9417 33.5581C82.7627 33.2002 82.3154 32.7528 82.3154 32.5739C82.3154 32.3949 82.2259 31.9476 82.0469 31.8581C81.868 31.7686 81.5101 31.1423 81.5101 30.9633C81.5101 30.7844 81.2417 30.0686 81.2417 29.9791C81.2417 29.8897 80.8838 29.5318 80.8838 28.816C80.8838 28.1002 80.9733 27.2949 80.8838 27.2949C80.7943 27.2949 80.3469 27.2949 80.3469 27.2949C80.3469 27.2949 80.168 27.2949 80.2575 27.5633C80.3469 27.8318 80.3469 27.9212 80.3469 28.0107C80.3469 28.1002 80.5259 28.0107 80.5259 28.1897C80.5259 28.3686 80.5259 28.9949 80.5259 28.9949C80.5259 28.9949 80.5259 29.0844 80.4364 29.0844C80.347 29.0844 80.2575 29.0844 80.2575 29.2633C80.2575 29.4423 80.2575 29.5318 80.3469 29.5318C80.4364 29.5318 80.6154 29.8897 80.7048 30.0686C80.7943 30.2476 80.7943 30.6054 80.9733 30.7844C81.1522 30.9633 81.3312 31.5897 81.3312 31.6791C81.3312 31.7686 81.3312 32.216 81.5101 32.3054C81.6891 32.3949 81.7785 32.4844 81.7785 32.5739C81.7785 32.6633 81.7785 32.6633 81.6891 32.7528C81.5996 32.8423 81.5996 33.1107 81.5996 33.2002C81.5996 33.2897 81.868 33.4686 81.9575 33.6476C82.0469 33.8265 82.047 34.3633 82.3154 34.6318C82.5838 34.9002 83.0312 35.5265 83.0312 35.616C83.0312 35.7054 83.0312 35.9739 83.1206 36.0633C83.2101 36.1528 83.2996 36.6002 83.568 36.4212Z" fill="#205AA0"/>
<path d="M84.7312 43.758C84.9102 43.3107 84.8207 42.237 84.9996 42.237C85.1786 42.237 85.1786 42.058 85.1786 41.8791C85.1786 41.7002 84.9102 41.7002 84.9102 41.3423C84.9102 40.9844 84.9102 40.7159 84.6417 40.7159C84.3733 40.7159 84.4628 40.9844 84.3733 40.9844C84.2838 40.9844 84.1944 41.0738 84.1944 41.2528C84.1944 41.4317 84.4628 41.5212 84.4628 41.7002C84.4628 41.8791 84.3733 42.058 84.3733 42.058C84.3733 42.058 84.2838 41.8791 84.2838 42.237C84.2838 42.5949 84.2838 42.8633 84.1049 42.9528C83.9259 43.0423 84.0154 43.3107 84.0154 43.4002C84.0154 43.4896 83.8365 43.6686 83.6575 43.6686C83.4786 43.6686 82.9417 44.2949 82.8523 44.4738C82.7628 44.6528 82.7628 45.0107 82.8523 45.1002C82.9417 45.1896 82.9417 45.1002 83.0312 45.1002C83.1207 45.1002 83.2102 44.6528 83.3891 44.6528C83.568 44.6528 83.8365 44.6528 84.1049 44.3844C84.3733 44.1159 84.6417 43.937 84.7312 43.758Z" fill="#205AA0"/>
</svg>
